<svg width="50" height="53" viewBox="0 0 50 53" fill="none" xmlns="http://www.w3.org/2000/svg">
<path d="M16.2537 11.6243C20.5582 7.70479 25.5971 5.90168 31.3897 6.23417C37.2845 6.57305 41.953 9.30969 45.9318 13.7663C47.3432 12.2509 48.6205 10.8762 49.9936 9.4056C49.8595 9.23296 49.7126 9.06032 49.5721 8.89408L48.6461 9.12426L48.8504 8.06285C46.0978 5.04488 42.6491 2.85813 38.9194 1.53456L37.8976 2.85173L38.1786 1.29159C35.5793 0.447581 32.865 0.019182 30.1571 0L29.7548 1.88623L29.0395 0.012788C25.8398 0.12788 22.6849 0.818434 19.811 2.09724C19.696 2.14839 19.5874 2.21233 19.4789 2.26348L19.5874 3.46556L18.7636 2.6727L14.0248 5.73543L15.7619 10.3455C15.8769 10.7739 16.0365 11.1959 16.2409 11.6115L16.2537 11.6243Z" fill="#FFEB38"/>
<path d="M23.0425 9.96831C21.3246 10.7867 20.1494 11.4965 19.3767 12.2574V12.1423L17.2053 13.7216L19.9195 19.4378C19.9387 19.4698 19.9515 19.5018 19.977 19.5465C25.9165 12.2957 34.8704 13.2612 39.7241 19.2013C41.1802 17.8202 42.63 16.4454 44.0542 15.0899C39.2451 8.54883 30.4062 6.46438 23.0425 9.96831Z" fill="#FFEB38"/>
<path d="M44.7758 40.506C40.7204 44.6813 35.8028 46.7913 29.9975 46.8105C24.0963 46.8297 19.2617 44.3871 15.0211 40.1863C13.7055 41.7848 12.5112 43.2362 11.2339 44.79C11.3808 44.9562 11.5341 45.1161 11.6873 45.2759L12.5942 44.9882L12.4537 46.056C15.3851 48.9013 18.9616 50.8707 22.7679 51.9641L23.7067 50.5893L23.5215 52.1687C26.1656 52.84 28.9054 53.1022 31.6069 52.9551L31.8942 51.0497L32.7181 52.872C35.905 52.5587 39.0088 51.6827 41.7997 50.2249C41.9147 50.1673 42.0169 50.097 42.1191 50.0331L41.9338 48.8438L42.8024 49.5855L47.3432 46.235L45.3251 41.74C45.1846 41.318 44.9994 40.9088 44.7695 40.506H44.7758Z" fill="#FFEB38"/>
<path d="M20.8903 34.3807C19.5236 35.8513 18.1568 37.3155 16.8157 38.7542C22.0207 44.9883 30.9682 46.5293 38.1019 42.5714C39.7688 41.6506 43.6965 38.4664 43.6965 38.4664L40.6374 32.9292C40.6118 32.8972 40.599 32.8653 40.5735 32.8269C35.0875 40.4294 26.0889 40.0138 20.8839 34.3807H20.8903Z" fill="#FFEB38"/>
<path d="M12.3579 7.13574C10.9592 8.53603 9.76495 9.94911 8.76226 11.3622L10.327 12.8456L8.24496 12.1103C6.21405 15.1602 5.02615 18.191 4.43221 21.1067L5.92665 21.9059L4.25977 22.0658C3.69776 25.5569 3.96599 28.8562 4.6238 31.7719L7.95118 31.5353L4.82817 32.6223C5.67758 35.9152 6.98681 38.6646 8.07252 40.5701L9.5989 39.2529L8.45571 41.2222C9.32428 42.6673 9.96931 43.4857 9.96931 43.4857L21.7141 26.7973L12.3515 7.13574H12.3579Z" fill="#FFEB38"/>
</svg>
